PathFileType	4	(X/Y/Z)	Kaydara																																																																																																																									
DataRate	CameraRate	NumFrames	NumMarkers	Units	OrigDataRate	OrigDataStartFrame	OrigNumFrames																																																																																																																					
30	30	8	41	mm	30	54	142																																																																																																																					
Frame#	Time	PAIB_LFHD			PAIB_RFHD			PAIB_LBHD			PAIB_RBHD			PAIB_LFTShould			PAIB_RFTShould			PAIB_LRRShould			PAIB_RRRShould			PAIB_T10			PAIB_STRN			PAIB_TRUN			PAIB_LSHO			PAIB_LUPA			PAIB_LELB			PAIB_LFRM			PAIB_LWRA			PAIB_LWRB			PAIB_LFIN			PAIB_RSHO			PAIB_RUPA			PAIB_RELB			PAIB_RFRM			PAIB_RWRA			PAIB_RWRB			PAIB_RFIN			PAIB_LFWT			PAIB_RFWT			PAIB_LBWT			PAIB_RBWT			PAIB_LTHI			PAIB_LKNE			PAIB_LSHN			PAIB_LANK			PAIB_LHEE			PAIB_LTOE			PAIB_RTHI			PAIB_RKNE			PAIB_RSHN			PAIB_RANK			PAIB_RHEE			PAIB_RTOE		
		X1	Y1	Z1	X2	Y2	Z2	X3	Y3	Z3	X4	Y4	Z4	X5	Y5	Z5	X6	Y6	Z6	X7	Y7	Z7	X8	Y8	Z8	X9	Y9	Z9	X10	Y10	Z10	X11	Y11	Z11	X12	Y12	Z12	X13	Y13	Z13	X14	Y14	Z14	X15	Y15	Z15	X16	Y16	Z16	X17	Y17	Z17	X18	Y18	Z18	X19	Y19	Z19	X20	Y20	Z20	X21	Y21	Z21	X22	Y22	Z22	X23	Y23	Z23	X24	Y24	Z24	X25	Y25	Z25	X26	Y26	Z26	X27	Y27	Z27	X28	Y28	Z28	X29	Y29	Z29	X30	Y30	Z30	X31	Y31	Z31	X32	Y32	Z32	X33	Y33	Z33	X34	Y34	Z34	X35	Y35	Z35	X36	Y36	Z36	X37	Y37	Z37	X38	Y38	Z38	X39	Y39	Z39	X40	Y40	Z40	X41	Y41	Z41
																																																																																																																												
54	1.777	243.49611	1688.9505	-1934.64783	57.88129	1685.53848	-1947.52975	262.01323	1660.65567	-2061.20285	58.38499	1667.55203	-2063.71155	221.88	1429.19785	-1965.40756	98.70089	1425.0972	-1973.89526	236.94897	1502.56348	-2106.13785	83.96409	1498.31177	-2105.0502	164.25449	1347.44354	-2196.77658	168.84485	1360.24292	-1936.20499	168.31701	1257.69318	-1920.02167	359.3026	1446.86615	-2042.30408	421.46828	1222.22786	-2083.71017	433.75492	1147.16461	-2132.1936	452.64477	1029.53316	-2093.60413	394.93591	915.38307	-2011.28403	432.90409	899.66942	-2077.94708	445.25417	861.22002	-2015.67276	-28.05904	1428.35083	-2038.02383	-92.96621	1266.1364	-2111.87347	-118.61065	1154.42459	-2134.68277	-139.10997	1019.23775	-2103.00598	-86.56604	920.1252	-2000.50781	-149.0481	901.60866	-2052.65472	-145.15191	868.59406	-1985.8168	278.57101	976.56563	-1978.73077	41.62931	973.95592	-1979.48441	212.36307	1009.67842	-2199.14337	72.42013	1024.28558	-2189.97314	266.49088	743.34831	-2182.55325	313.85965	500.20641	-2074.81171	290.80482	308.3791	-2074.88739	291.59286	131.26966	-2179.59381	230.97042	122.16067	-2220.94986	291.36095	74.92537	-2002.79572	14.83331	719.57901	-2171.53595	7.0326	479.89735	-2071.5358	67.01915	292.56721	-2085.75439	27.15164	112.72794	-2202.74963	87.7616	115.30325	-2243.06839	45.61167	77.11551	-2009.31488
55	1.81	243.71891	1687.99896	-1928.95416	58.38717	1684.44214	-1942.7005	262.84454	1660.10071	-2055.45532	59.30612	1666.91071	-2058.94852	222.24466	1427.95883	-1961.80023	99.07317	1424.19754	-1971.1319	238.33256	1502.42386	-2101.48392	85.33206	1498.54874	-2101.55548	166.01744	1348.1456	-2193.73734	168.67855	1358.88809	-1933.55499	167.75944	1256.23306	-1917.8801	359.8362	1445.83206	-2036.84601	422.37984	1221.69884	-2079.13055	434.97459	1146.56395	-2127.42676	453.41721	1028.77853	-2089.53522	394.59724	914.01665	-2008.84308	433.39226	898.75809	-2074.94675	444.94251	859.8597	-2012.98309	-27.03402	1427.90192	-2035.17273	-91.95169	1266.34438	-2110.03098	-117.85563	1154.84154	-2133.38715	-138.5349	1019.66232	-2101.72455	-86.23528	920.58914	-1998.97186	-148.67304	902.10823	-2051.30569	-145.02274	869.24805	-1984.42963	277.76011	975.87601	-1976.17935	40.84925	973.91335	-1978.49304	214.07331	1008.93074	-2196.99585	74.02251	1023.89786	-2189.16107	267.24478	742.62863	-2180.16602	313.22748	499.51218	-2071.47858	289.9259	307.64301	-2072.65137	291.11929	131.44941	-2178.8797	230.6673	122.39308	-2220.50781	290.97565	75.0911	-2002.66464	18.66038	719.98184	-2171.10519	7.14184	479.77692	-2073.53424	67.16952	292.58905	-2085.5661	27.29238	112.95804	-2202.98996	88.15463	115.18421	-2243.20557	45.52482	77.4545	-2009.53644
56	1.843	244.30853	1686.7395	-1922.87277	58.89606	1683.1424	-1936.73904	263.52867	1659.48929	-2049.64722	59.89807	1665.9787	-2053.09967	222.66319	1426.73126	-1957.77222	99.28912	1422.83417	-1968.06061	239.57052	1501.87531	-2096.4238	86.58392	1498.27591	-2097.75269	167.76937	1348.26401	-2190.26535	168.7339	1357.32986	-1930.40497	167.64341	1254.67072	-1915.71976	360.32986	1444.78516	-2031.19339	422.85862	1220.65735	-2073.34641	436.33171	1145.97145	-2122.02972	454.18785	1028.04947	-2084.34509	393.92059	912.78954	-2005.51132	433.88035	898.00659	-2070.89981	444.36424	858.70102	-2008.81577	-25.84493	1427.10526	-2032.91428	-91.39321	1266.7701	-2108.67676	-117.92379	1155.43953	-2132.44751	-138.42646	1020.21202	-2100.10986	-85.40897	921.53488	-1997.20856	-148.28354	902.82326	-2049.13055	-144.27508	870.43182	-1981.89865	278.50626	975.02342	-1973.26263	41.43165	973.33359	-1977.11334	215.54365	1009.16054	-2193.95721	75.60024	1024.76524	-2186.91071	268.96322	742.03239	-2177.98203	312.91985	498.5273	-2066.74942	287.93131	306.76762	-2069.13467	291.20651	131.36418	-2178.15201	231.08095	122.5362	-2220.65109	290.12388	76.2173	-2003.32001	19.56263	720.53673	-2171.33087	6.80123	479.70112	-2073.79227	67.33964	292.27768	-2085.77347	26.24479	112.72676	-2203.89496	87.25222	114.76359	-2244.0921	44.41697	78.99441	-2010.67932
57	1.877	245.39349	1685.56763	-1916.64871	59.30257	1681.3765	-1929.78806	263.83869	1657.79465	-2042.89322	60.22248	1663.91434	-2046.17249	222.39552	1424.69925	-1951.44669	99.77578	1420.56641	-1963.47092	240.99518	1500.88745	-2089.45313	87.7621	1497.2261	-2092.40448	169.8665	1348.30399	-2185.70496	168.37873	1354.93774	-1926.39572	167.68465	1252.08679	-1912.45316	360.94425	1443.24707	-2024.68475	424.20158	1220.14633	-2068.28522	438.04207	1145.31525	-2116.96106	454.84314	1027.1891	-2078.97781	392.7742	912.41989	-2000.72159	433.74325	897.35184	-2065.72433	443.46989	858.35014	-2003.42529	-24.7613	1425.22385	-2029.60403	-91.29232	1266.77002	-2107.69913	-119.17102	1155.80467	-2131.71036	-139.0108	1020.51598	-2097.77496	-84.52865	923.4935	-1994.37973	-147.97019	903.6631	-2045.55206	-143.15346	872.05116	-1977.98721	279.13177	973.54721	-1970.15503	42.11477	972.89955	-1975.71259	217.90924	1008.76801	-2190.85495	77.91848	1024.97543	-2184.81659	271.45718	740.81055	-2174.33578	313.11747	497.0261	-2060.41199	287.1151	305.10303	-2065.96024	291.70507	131.50723	-2178.17841	232.13942	123.02444	-2221.47903	289.3375	78.8693	-2005.7283	17.93953	720.63492	-2170.37231	7.2112	479.5573	-2071.74866	67.59943	291.89692	-2085.89935	24.57557	112.83676	-2204.9054	85.67169	114.52972	-2245.35294	43.57394	81.89401	-2012.19879
58	1.91	245.18469	1683.23486	-1908.07648	59.6106	1679.30573	-1921.67007	264.11976	1655.37109	-2034.66034	60.56979	1661.67664	-2037.86774	222.61957	1421.75827	-1944.37759	100.23292	1417.27539	-1957.78198	242.38092	1499.99741	-2081.15692	89.09029	1496.05927	-2085.56671	172.549	1348.79593	-2180.41061	168.50578	1351.43463	-1921.24191	167.50095	1248.3606	-1908.68866	361.52466	1441.18683	-2016.04584	426.27892	1218.9064	-2062.53586	440.83488	1144.99657	-2111.58539	456.03886	1026.47072	-2072.97729	391.85291	912.77901	-1994.85672	433.48358	896.92154	-2059.32831	442.27341	858.46054	-1996.409	-23.66851	1422.8479	-2024.80087	-91.39174	1266.48361	-2105.28519	-120.73458	1156.1261	-2130.19455	-139.75601	1020.78247	-2094.74213	-84.33289	925.36049	-1990.61691	-147.72098	904.56276	-2041.05362	-142.32249	874.02473	-1973.04947	279.74787	972.73697	-1965.6958	42.76694	972.83974	-1973.26447	220.7313	1006.88202	-2187.07764	80.81069	1023.73962	-2182.10815	272.72709	738.78067	-2167.97455	313.20358	495.50819	-2052.86102	286.61526	303.37503	-2062.28561	292.27268	132.2012	-2177.8743	232.94722	123.82769	-2221.85135	289.42478	82.28667	-2008.1218	17.96545	720.61508	-2168.04855	8.47413	479.30691	-2070.65521	68.61834	291.80933	-2086.4505	24.07408	113.07701	-2205.92087	85.16389	114.27887	-2246.46286	42.52097	86.15084	-2015.16556
59	1.943	245.54962	1680.73898	-1898.0867	60.08303	1676.86829	-1911.48529	264.55919	1653.25317	-2024.73663	60.94569	1659.52728	-2027.87186	222.55495	1418.67111	-1937.88422	100.06788	1414.33594	-1952.00653	243.89975	1499.21555	-2072.08267	90.63029	1494.99191	-2078.4375	175.50215	1349.15207	-2174.1806	168.44788	1348.01758	-1915.14175	167.48692	1244.92393	-1903.68607	362.05124	1439.36295	-2005.94147	428.88203	1218.30124	-2054.78134	444.4664	1145.02602	-2104.17862	458.1078	1026.27304	-2065.2269	391.48529	913.37906	-1988.00201	434.31072	896.86829	-2051.49796	441.60378	858.53043	-1988.43262	-22.43403	1421.31927	-2019.9588	-91.16411	1266.40877	-2101.38885	-121.88031	1156.56693	-2126.88553	-140.44868	1021.1599	-2090.34897	-84.1776	927.15691	-1985.51208	-147.72144	905.39528	-2035.61951	-142.07643	875.68146	-1967.24686	280.90855	971.42883	-1959.8082	44.16189	972.40204	-1968.83591	223.62795	1005.14572	-2181.73294	83.75175	1022.71576	-2177.4881	273.56791	736.38222	-2160.97946	313.02431	493.88988	-2046.1322	285.82022	301.89411	-2058.84583	292.25737	132.49521	-2177.39273	233.39579	124.72742	-2222.02194	286.87551	85.51996	-2009.09607	20.79923	721.3839	-2165.55939	9.04162	479.4352	-2071.2384	68.57573	291.77055	-2087.15744	23.98667	113.50155	-2207.36328	85.4467	114.06402	-2247.78183	41.78527	90.06801	-2017.15118
60	1.977	245.93014	1678.0423	-1885.96756	60.50861	1673.8707	-1899.68842	265.27925	1651.49963	-2012.77145	61.68023	1657.24548	-2016.12167	223.33567	1416.54831	-1929.19479	100.79019	1411.6864	-1943.77106	245.68048	1498.172	-2061.53366	92.69628	1493.43597	-2069.65683	179.01741	1348.69736	-2165.44617	168.29897	1345.5043	-1907.42416	168.00966	1242.24541	-1896.57349	363.14796	1437.71744	-1994.97391	431.9603	1218.32199	-2045.18555	448.78166	1145.18059	-2094.79843	461.1813	1026.20148	-2055.37445	392.04769	913.72971	-1979.53033	436.31538	896.97144	-2041.88889	441.56143	858.22823	-1978.77914	-20.66967	1419.43085	-2013.92746	-90.34135	1266.17104	-2096.46591	-122.4563	1156.90964	-2122.48184	-140.89384	1021.52924	-2084.44534	-84.06544	928.56262	-1979.05624	-148.21994	906.90437	-2029.09027	-141.93161	877.43645	-1959.80225	282.51932	969.64851	-1952.49527	45.86878	971.21361	-1963.72406	227.15536	1004.95049	-2173.45581	87.13091	1022.91466	-2171.34628	274.67276	735.5162	-2154.34967	312.82682	492.2654	-2040.35095	284.41122	300.38774	-2055.19684	291.65308	131.91216	-2175.63156	234.00032	125.38526	-2221.99768	283.2118	85.96665	-2008.77808	24.03644	721.81732	-2162.60696	8.88719	479.39266	-2070.66498	67.73856	291.0565	-2086.29395	24.03776	113.52849	-2208.1163	85.60784	114.14027	-2247.91412	39.37091	90.64509	-2018.39432
61	2.01	247.14594	1674.75845	-1872.09076	61.60956	1670.77972	-1885.61401	266.36621	1648.25882	-1998.77213	62.73633	1654.48029	-2002.2348	224.40371	1413.09998	-1916.95602	102.32717	1408.0246	-1932.99362	247.84893	1496.59058	-2047.8183	95.01043	1491.55212	-2057.76688	182.85706	1348.39325	-2154.53583	169.1622	1341.92673	-1896.96869	169.06811	1238.43491	-1887.3288	364.53545	1435.23102	-1981.21582	435.79899	1217.7877	-2034.48563	454.06601	1145.43503	-2084.2952	465.06771	1026.11671	-2044.14566	393.70522	914.57993	-1968.93036	439.29832	897.41318	-2030.89355	442.44686	858.42239	-1967.53998	-18.42196	1416.67603	-2004.24072	-88.6912	1265.79178	-2090.1091	-122.47393	1157.15042	-2116.86279	-140.96103	1021.99112	-2077.31293	-83.85344	930.07942	-1971.09329	-148.33031	907.98027	-2020.89981	-141.72159	879.34753	-1951.03424	283.24581	967.37358	-1944.26605	46.51296	969.46938	-1957.84454	231.18301	1004.56139	-2165.60471	91.1668	1022.50053	-2164.62479	277.56607	735.14839	-2147.78763	312.96036	490.31349	-2034.46671	283.57111	298.62015	-2051.45844	291.94042	131.82178	-2174.32373	234.70562	125.82132	-2221.69281	281.88858	84.58724	-2008.11035	26.31604	721.07803	-2158.22433	9.9008	478.02006	-2066.15265	67.61121	290.09258	-2083.94455	24.16343	113.51541	-2207.0845	85.93424	114.38805	-2246.74683	39.16846	87.786	-2016.77368
